<?xml version="1.0" standalone="no"?>
<!DOCTYPE svg PUBLIC "-//W3C//DTD SVG 20010904//EN"
 "http://www.w3.org/TR/2001/REC-SVG-20010904/DTD/svg10.dtd">
<svg version="1.0" xmlns="http://www.w3.org/2000/svg"
 width="1280.000000pt" height="990.000000pt" viewBox="0 0 1280.000000 990.000000"
 preserveAspectRatio="xMidYMid meet">
<g transform="translate(0.000000,990.000000) scale(0.100000,-0.100000)"
fill="#000000" stroke="none">
<path d="M3581 7935 c-1587 -1070 -2889 -1949 -2894 -1954 -6 -6 18 -48 62
-112 39 -57 71 -108 71 -115 0 -6 -50 -44 -110 -84 -61 -40 -113 -76 -115 -80
-5 -8 839 -1261 859 -1274 9 -6 43 12 117 62 56 40 110 72 119 72 10 0 75 -87
165 -221 105 -156 153 -219 164 -216 19 5 3105 2080 3139 2110 12 11 22 30 22
41 0 77 75 265 148 372 45 67 154 174 225 223 179 122 411 173 627 136 l103
-17 116 79 c64 44 405 274 758 512 353 237 645 435 647 440 7 11 -1316 1971
-1329 1971 -5 -1 -1308 -876 -2894 -1945z"/>
<path d="M5872 6670 c-416 -109 -617 -598 -396 -965 226 -376 735 -434 1040
-119 252 260 237 686 -33 933 -161 148 -398 207 -611 151z"/>
<path d="M6484 5295 c-114 -57 -233 -98 -359 -123 -47 -9 -85 -20 -85 -24 0
-5 119 -354 264 -776 146 -422 352 -1023 459 -1335 107 -312 197 -570 199
-572 2 -2 42 16 90 40 102 54 260 107 385 132 l91 18 -373 1085 c-552 1607
-551 1604 -561 1605 -5 1 -54 -22 -110 -50z"/>
<path d="M247 5108 c-154 -104 -226 -158 -223 -168 2 -12 606 -912 621 -929 4
-3 430 282 453 304 12 10 -38 90 -288 461 -167 247 -310 457 -319 467 -16 16
-29 9 -244 -135z"/>
<path d="M12310 3181 c0 -220 -3 -406 -6 -415 -5 -14 -36 -16 -245 -16 l-239
0 0 -955 0 -955 233 0 c168 0 236 -3 245 -12 9 -9 12 -116 12 -420 l0 -408
245 0 245 0 0 1790 0 1790 -245 0 -245 0 0 -399z"/>
<path d="M7393 2440 c-236 -43 -428 -211 -509 -445 -38 -110 -40 -273 -6 -385
35 -113 86 -196 172 -281 89 -89 196 -148 316 -174 98 -22 251 -16 344 14 192
61 359 228 422 421 29 91 36 254 13 355 -49 223 -229 412 -455 479 -67 20
-226 28 -297 16z"/>
<path d="M8320 2087 c0 -2 9 -43 20 -93 32 -143 26 -295 -17 -482 l-5 -22
1638 2 1639 3 3 298 2 297 -1640 0 c-902 0 -1640 -1 -1640 -3z"/>
</g>
</svg>
